Coordinates
version=1
nRows=12
nColumns=24
inDegrees=yes

Units are S.I. units (second, meters, Newtons, ...)
Angles are in degrees.

endheader
time	pelvis_tilt	pelvis_list	pelvis_rotation	pelvis_tx	pelvis_ty	pelvis_tz	hip_flexion_r	hip_adduction_r	hip_rotation_r	knee_angle_r	ankle_angle_r	subtalar_angle_r	mtp_angle_r	hip_flexion_l	hip_adduction_l	hip_rotation_l	knee_angle_l	ankle_angle_l	subtalar_angle_l	mtp_angle_l	lumbar_extension	lumbar_bending	lumbar_rotation
      1.36300000	      2.05364593	      5.99478698	     -5.75947483	      0.16365100	      1.07139879	      0.34410244	     16.45127813	     -7.10438724	      0.61733544	    -69.58595357	     -8.22708858	    -12.95209020	      7.73570719	      7.66871096	     10.61276447	     -2.23162896	     -8.36820968	     -3.52241363	    -11.78974117	      0.80344289	      0.56137496	     -2.99099308	      2.48019143
      1.36716667	      2.05759046	      5.98847052	     -5.72104038	      0.16845524	      1.07196216	      0.34415986	     17.07435151	     -7.00235127	      0.82724866	    -69.56363972	     -7.62628549	    -13.24327508	      7.68209281	      7.34413545	     10.63774680	     -2.22641933	     -8.32022165	     -3.28805628	    -11.81109658	      0.74978990	      0.51171902	     -3.06739294	      2.41368888
      1.37133333	      2.06998270	      6.01077763	     -5.70020469	      0.17322283	      1.07249617	      0.34404351	     17.69223328	     -6.95008404	      1.05358781	    -69.48465245	     -7.27267720	    -13.40900471	      7.64905075	      6.99832726	     10.71343630	     -2.10387453	     -8.22266125	     -3.15021187	    -11.77417823	      0.71768239	      0.42863073	     -3.03902514	      2.34841003
      1.37550000	      2.07185568	      6.01491106	     -5.67056474	      0.17798742	      1.07302745	      0.34401937	     18.29546332	     -6.86154578	      1.27490807	    -69.33807408	     -6.81748178	    -13.59734481	      7.61318163	      6.66228745	     10.75925094	     -1.99646090	     -8.13779757	     -2.96204799	    -11.76989916	      0.68182820	      0.36431707	     -3.04806834	      2.27947775
      1.37966667	      2.07669207	      6.00709419	     -5.62703413	      0.18274797	      1.07356161	      0.34400883	     18.86986742	     -6.75978001	      1.47582084	    -69.11618659	     -6.40584720	    -13.73727797	      7.57874085	      6.32079030	     10.79182935	     -1.88369524	     -8.05054379	     -2.78869834	    -11.76570212	      0.64628117	      0.30440087	     -3.04928122	      2.20782159
      1.38383333	      2.07268683	      5.99546342	     -5.56992354	      0.18754375	      1.07408802	      0.34398696	     19.42524362	     -6.65391215	      1.66409756	    -68.82419455	     -5.98846328	    -13.84833458	      7.54155697	      5.98114042	     10.82216442	     -1.76155948	     -7.95935508	     -2.61022567	    -11.76572681	      0.60658277	      0.25288611	     -3.04702022	      2.12801572
      1.38800000	      2.07579285	      5.98496099	     -5.50869168	      0.19232135	      1.07461695	      0.34397407	     19.95465700	     -6.54780903	      1.84724995	    -68.46368884	     -5.60064975	    -13.92326735	      7.50453826	      5.63187161	     10.85356856	     -1.62428965	     -7.85668502	     -2.44355855	    -11.76683030	      0.56577231	      0.19800817	     -3.04491035	      2.04411188
      1.39216667	      2.07279886	      5.94088593	     -5.42549608	      0.19711555	      1.07516167	      0.34407077	     20.45178845	     -6.39490634	      2.01268944	    -68.00743244	     -5.42170022	    -13.95436422	      7.49131888	      5.28600378	     10.83594490	     -1.51942083	     -7.76807409	     -2.37351404	    -11.76464366	      0.55141689	      0.10876480	     -3.05404504	      2.00596162
      1.39633333	      2.10133543	      5.94726529	     -5.37257276	      0.20192622	      1.07569719	      0.34396446	     20.91875836	     -6.32147569	      2.18692411	    -67.53955390	     -4.91132263	    -14.03294095	      7.45606208	      4.88787902	     10.90228743	     -1.31827820	     -7.62343295	     -2.14179700	    -11.79389427	      0.51056821	      0.07217498	     -3.01355284	      1.90087543
      1.40050000	      2.10625094	      5.91761021	     -5.26768340	      0.20671006	      1.07621301	      0.34395026	     21.36864181	     -6.20208716	      2.32062218	    -66.98445808	     -4.46881716	    -14.00119449	      7.40543799	      4.52279413	     10.91278590	     -1.14172585	     -7.51415118	     -1.94958223	    -11.83778326	      0.44765528	     -0.00850355	     -3.01527109	      1.76640113
      1.40466667	      2.11447418	      5.89708895	     -5.18791248	      0.21151612	      1.07671379	      0.34396057	     21.80056717	     -6.08739304	      2.47571865	    -66.35977885	     -4.18259347	    -13.97607456	      7.36591417	      4.14385739	     10.93365795	     -0.96975582	     -7.37136935	     -1.83421215	    -11.85441826	      0.39824005	     -0.06140067	     -3.00049383	      1.66366189
      1.40883333	      2.08638354	      5.87569924	     -5.09805363	      0.21627994	      1.07713960	      0.34408285	     22.25416243	     -5.95295265	      2.63341540	    -65.67282929	     -4.03269347	    -13.98373071	      7.35347805	      3.81832772	     10.93639763	     -0.87167280	     -7.25784937	     -1.77859945	    -11.86051818	      0.38331604	     -0.16277972	     -3.02678413	      1.62720317
